<svg xmlns="http://www.w3.org/2000/svg" width="1200" height="500" viewBox="0 0 1200 500" role="img" aria-label="Fronei app PWA icons">

  <defs>
    <style>
      .wordmark {
        font-family: Inter, Geist, ui-sans-serif, system-ui, -apple-system, BlinkMacSystemFont, "Segoe UI", sans-serif;
        font-weight: 600;
        letter-spacing: -0.045em;
      }
    </style>
  </defs>

  <rect width="1200" height="500" fill="#FFFFFF"/>
  
  <g transform="translate(80,110) scale(0.7421875)">
    <rect x="0" y="0" width="256" height="256" rx="58" fill="#1E293B"/>
    
    <path d="M86 119 H176 V151 H122 V236 H86 Z" fill="#FFFFFF"/>
    <path d="M86 76 C126 75 159 66 198 44 V80 C158 102 121 111 86 111 Z" fill="#FFFFFF"/>

    
    <path d="M200 46 C203.96 60.04 203.96 60.04 218 64
             C203.96 67.96 203.96 67.96 200 82
             C196.04 67.96 196.04 67.96 182 64
             C196.04 60.04 196.04 60.04 200 46 Z" fill="#FBBF24"/>

  </g>

  
  <g transform="translate(420,100) scale(0.8203125)">
    <rect x="0" y="0" width="256" height="256" rx="58" fill="#1E293B"/>
    
    <path d="M86 119 H176 V151 H122 V236 H86 Z" fill="#FFFFFF"/>
    <path d="M86 76 C126 75 159 66 198 44 V80 C158 102 121 111 86 111 Z" fill="#FFFFFF"/>

    
    <path d="M200 46 C203.96 60.04 203.96 60.04 218 64
             C203.96 67.96 203.96 67.96 200 82
             C196.04 67.96 196.04 67.96 182 64
             C196.04 60.04 196.04 60.04 200 46 Z" fill="#FBBF24"/>

  </g>

  
  <g transform="translate(790,55) scale(1.171875)">
    <rect x="0" y="0" width="256" height="256" rx="58" fill="#1E293B"/>
    
    <path d="M86 119 H176 V151 H122 V236 H86 Z" fill="#FFFFFF"/>
    <path d="M86 76 C126 75 159 66 198 44 V80 C158 102 121 111 86 111 Z" fill="#FFFFFF"/>

    
    <path d="M200 46 C203.96 60.04 203.96 60.04 218 64
             C203.96 67.96 203.96 67.96 200 82
             C196.04 67.96 196.04 67.96 182 64
             C196.04 60.04 196.04 60.04 200 46 Z" fill="#FBBF24"/>

  </g>

  <text x="175" y="410" text-anchor="middle" font-family="Inter, ui-sans-serif, system-ui" font-size="36" fill="#0F172A">180px</text>
  <text x="525" y="410" text-anchor="middle" font-family="Inter, ui-sans-serif, system-ui" font-size="36" fill="#0F172A">192px</text>
  <text x="940" y="410" text-anchor="middle" font-family="Inter, ui-sans-serif, system-ui" font-size="36" fill="#0F172A">512px</text>
</svg>
