<svg xmlns="http://www.w3.org/2000/svg" width="1200" height="420" viewBox="0 0 1200 420" role="img" aria-label="Fronei primary logo dark">

  <defs>
    <style>
      .wordmark {
        font-family: Inter, Geist, ui-sans-serif, system-ui, -apple-system, BlinkMacSystemFont, "Segoe UI", sans-serif;
        font-weight: 700;
        letter-spacing: -0.045em;
      }
      .label {
        font-family: Inter, Geist, ui-sans-serif, system-ui, -apple-system, BlinkMacSystemFont, "Segoe UI", sans-serif;
        font-weight: 600;
      }
    </style>
  </defs>

  <rect width="1200" height="420" fill="none"/>

  <g transform="translate(80,82) scale(1.0)">
    <rect x="0" y="0" width="256" height="256" rx="58" fill="none"/>
    
    <path d="M86 119 H176 V151 H122 V236 H86 Z" fill="#FFFFFF"/>
    <path d="M86 76 C126 75 159 66 198 44 V80 C158 102 121 111 86 111 Z" fill="#FFFFFF"/>

    
    <path d="M210 42
             C214.32 55.68 214.32 55.68 228 60
             C214.32 64.32 214.32 64.32 210 78
             C205.68 64.32 205.68 64.32 192 60
             C205.68 55.68 205.68 55.68 210 42 Z" fill="#FBBF24"/>

  </g>

  <text x="390" y="262" class="wordmark" font-size="172" fill="#FFFFFF">fronei</text>
</svg>
